Patient4_TMGait_0pt2_03_left_16_EMG.mot
version=1
nRows=33
nColumns=33
inDegrees=no
endheader
time	1LAddLong	2LGlutMax	3LGlutMed	4LIliopsoas	5LSemiMemb	6LBicFemLong	7LRecFem	8LVastMed	9LVastLat	10LGasMed	11LTibAnt	12lTibPost	13LPeroneusLong	14LSol	15LExtDigLong	16LFlexDigLong	17RAddLong	18RGlutMax	19RGlutMed	20RIliopsoas	21RSemiMemb	22RBicFemLong	23RRecFem	24RVastMed	25RVastLat	26RGasMed	27RTibAnt	28RTibPost	29RPeroneusLong	30RSol	31RExtDigLong	32RFlexDigLong
34.077	-0.001984	0.006104	0.06897	0.011444	-0.18127	-0.28366	0.10468	0.002594	-0.019836	0.12039	-0.005188	0.01358	-0.030365	0.029144	0.080719	-0.001831	-0.001373	-0.12283	0.002441	-0.041351	-0.066223	0.032806	0.050049	0.10391	-0.007324	0.010529	-0.00061	-0.026703	0.19501	0.62943	-0.002747	-0.010376
34.078	0.023193	0.040131	0.02594	0.011749	0.030823	-0.1738	0.072174	-0.001831	0.019836	-0.13001	0.021667	0.003204	0.005188	0.097504	0.052185	-0.005493	0.003204	-0.070801	-0.039673	-0.022583	-0.041199	0.007172	0.025635	0.020752	0.048676	0.002441	0.007019	-0.10101	-0.19684	0.071106	-0.000305	-0.006104
34.079	0.020294	0.007629	-0.004883	-0.002441	0.084229	-0.16357	0.075531	-0.001984	-0.015259	-0.1236	0.042572	0.00946	-0.19486	0.11108	0.02655	0.000458	0.006256	-0.092621	0.008545	0.044403	0.11948	0.031586	-0.023956	0.017395	0.075378	-0.00061	-0.009613	0.007935	-0.19775	-0.31509	0.001526	-0.001831
34.08	0.019379	0.037994	0.010223	-0.005493	0.10788	-0.14664	0.075531	0.003815	0.031128	-0.061646	0.00885	0.010834	-0.11673	0.10208	0.032654	0.011749	0.007019	-0.003815	-0.003815	0.048828	0.168	0.055237	0.015564	0.043335	0.10391	0.004425	-0.009766	0.086365	-0.24567	-0.7045	-0.001068	-0.013885
34.081	0.012817	0.007477	-0.004272	0.015869	0.07019	0.026855	0.079803	-0.00061	0.003967	-0.048828	0.000153	-0.002747	0.17731	0.001526	-0.006714	0.004883	0.018158	0.007019	0.091248	0.13901	0.10864	0.046692	0.047913	0.018005	0.088654	0.015717	-0.010681	0.04364	-0.10468	-0.41184	-0.002136	-0.009613
34.082	0.01236	-0.023346	0.01358	0.019073	0.075989	0.09552	0.079498	0.004425	-0.026398	0.020294	-0.003662	-0.000458	0.075989	-0.13062	-0.021973	0.000458	0.005188	0.022888	0.032196	0.271	-0.062561	0.10666	-0.033875	-0.069122	0.090637	0.012512	0.003204	-0.074921	-0.15915	-0.25574	-0.001221	-0.014038
34.083	-0.003052	-0.014496	0.047302	0.016174	0.066833	0.077362	0.076294	0.007172	0.006256	0.075226	0.004883	0.000916	-0.051422	-0.2832	-0.001831	0.014954	0.003815	0.019226	-0.054474	0.24185	-0.1355	0.077667	-0.046997	-0.035706	0.12741	-0.006866	0.033264	-0.0914	-0.24307	-0.24292	-0.004578	-0.02533
34.084	-0.001526	0.032959	0.042267	-0.006866	0.008698	0.11429	0.068512	0.00885	0.052795	0.085144	-0.010071	0.008087	0.060577	-0.22156	0.028839	-0.002747	0.036163	0.029755	-0.010681	0.15625	0.002441	0.028381	-0.004425	-0.014343	0.040588	-0.013428	0.031586	0.045471	-0.021057	-0.29388	-0.002747	-0.019531
34.085	-0.000458	0.032043	0.014954	0.007629	-0.040741	0.12833	0.067444	-0.001831	0.07431	0.071869	0.000305	0.001984	0.11551	-0.023956	0.035553	-0.002441	0.022278	0.019226	0.016022	0.074463	0.1059	0.02594	0.095978	-0.019684	0	0.00473	0.002289	0.080719	0.40192	-0.28961	-0.012817	-0.007782
34.086	0.005493	0.011139	0.026855	0.007629	0.03479	0.01709	0.062256	0.005341	0.017395	0.06012	0.008087	-0.001984	0.00061	-0.022736	0.068054	-0.008087	0.020294	0.064697	0.10284	0.028229	0.039215	0.038147	0.14832	-0.023804	-0.028381	0.013123	0.012512	0.012817	0.59769	0.13382	-0.003815	-0.012207
34.087	0.001678	0.029755	0.008392	0.014801	0.084991	0.001678	0.079346	-0.001373	0.045624	0.066071	0.013275	0.004578	-0.041504	-0.10666	0.076752	0.010529	-0.019226	0.066223	0.066071	0.002289	-0.14725	0.0914	0.15121	0.00412	-0.03006	0.003204	0.050354	0.00885	0.095062	0.072784	-0.003662	-0.012817
34.088	0.003204	0.023041	0.001678	0.016785	0.058441	0.088196	0.098724	-0.002747	0.028534	0.059052	0.012054	0.001678	-0.005341	-0.001678	0.054474	-0.005035	-0.010681	0.16251	0.069275	-0.026245	0.005646	0.036926	0.13718	-0.013275	-0.02182	-0.004578	0.054169	-0.025177	-0.079803	0.003204	-0.005188	-0.005188
34.089	0.004272	0.016327	-0.018616	0.010986	-0.012512	0.15152	0.080719	-0.005188	0.037842	0.057373	0.00946	-0.011139	0.045776	0.14725	0.029144	0.007477	0.006104	0.070343	0.17105	-0.011902	0.069733	0.030212	0.14358	-0.044098	-0.018005	-0.005646	0.036469	-0.032196	-0.085449	0.13016	-0.001373	-0.004883
34.09	0.004272	0.0354	-0.010681	0.00885	-0.10498	0.18341	0.070953	-0.006561	0.023193	0.13763	0.021667	-0.001221	0.019684	0.087891	-0.010529	0.004578	0.023956	0.085144	0.24872	-0.051117	0.03418	0.05127	0.064545	-0.080109	0.001831	-0.012054	0.0383	-0.010529	-0.019379	0.02533	-0.002441	-0.005035
34.091	0.005035	0.050507	0.001526	0.006866	-0.1442	0.12741	0.051575	0.000305	0	0.16403	0.001221	0.001678	0.018921	0.017395	-0.035858	-0.016632	0.019226	0.1001	0.11978	-0.049133	-0.018158	0.028381	0.10056	-0.074921	-0.020752	0.001526	0.027466	0.057983	0.20371	0.019073	-0.000458	-0.016632
34.092	-0.016327	0.042725	-0.011139	0.009918	-0.076752	-0.031891	0.067902	-0.004272	-0.093231	-0.076599	-0.001678	-0.000916	0.12634	-0.018311	-0.030518	-0.004578	0.02121	0.072937	0.085297	-0.020294	-0.06897	0.040741	0.16495	-0.058289	0.02243	-0.006714	0.007019	0.044861	0.37872	-0.17883	-0.004883	-0.006561
34.093	-0.012054	0.067596	-0.005646	0.01358	-0.000916	-0.10483	0.050354	0.005188	-0.018616	-0.14374	0.001984	0.00824	0.2626	0.005341	0.015106	0	0.018463	0.075226	0.089264	0.013123	-0.074768	0.063171	0.17639	-0.060883	0.046387	-0.010986	-0.001984	-0.009918	0.24536	-0.2803	-0.002747	-0.012665
34.094	-0.004272	0.060425	-0.058289	0.009308	0.02182	-0.09964	0.069885	0.010834	-0.000305	0.12787	0.023346	0.007935	0.015869	0.12146	0.032654	0.00351	0.005188	0.047607	-0.14099	0.051575	0.023346	0.063477	0.17181	-0.06897	0.019684	-0.013428	-0.022888	-0.021515	-0.084229	0.009155	-0.00061	-0.006561
34.095	0.007477	0.046387	-0.076752	0.008392	-0.013275	-0.16388	0.060272	0.011749	-0.006714	0.26443	0.025787	0.009003	-0.18066	0.02655	0.054016	0.006866	-0.004883	0.042267	-0.1918	0.042419	0.04303	0.05127	0.12528	-0.028229	0.020752	-0.017548	-0.006256	-0.027618	-0.20874	0.26398	-0.002441	-0.011292
34.096	-0.026398	0.050049	-0.058289	0.008087	-0.079651	-0.22751	0.037231	0.006409	0.008698	0.21942	0.018921	0	-0.18768	-0.030823	0.059204	0.012817	-0.009918	0.075684	-0.15213	-0.048523	0.034943	0.052643	0.014801	-0.055389	0.038757	-0.010986	0.012665	-0.007324	-0.21851	0.033875	-0.000916	-0.011444
34.097	0.016785	0.051422	-0.040283	0.008545	-0.007019	-0.39322	0.042267	-0.005188	0.009308	0.24597	0.000458	0.001831	-0.031281	0.10727	0.067139	0.003662	-0.00946	0.10895	0.028992	-0.11612	0.049438	0.04715	0.02243	-0.064697	0.03418	0.005035	0.001678	-0.010376	-0.069733	-0.00412	-0.005798	-0.012817
34.098	0.025787	0.11887	0.057983	0.003052	0.11231	-0.18875	0.087433	-0.00946	0.010986	0.053406	-0.007172	0.010529	0.20477	0.22461	0.023499	-0.006714	-0.011902	0.11475	0.32516	-0.10086	0.06485	0.042419	0.068817	-0.053406	0.06012	0.001373	0.002289	-0.01236	-0.040436	-0.1384	0.000153	-0.011444
34.099	0.033417	0.13443	0.097809	0.00824	0.16922	-0.002899	0.074768	-0.007629	-0.004883	-0.30518	-0.009613	0.11688	0.1152	0.084229	-0.002899	0.002136	-0.003357	0.12695	0.41458	-0.056	0.032043	0.035706	0.12787	-0.059052	0.037842	0.009003	-0.011139	-0.014648	0.07019	0.058136	-0.002289	-0.018768
34.1	0.020294	0.14908	0.055237	0.009003	0.071259	0.12238	0.10346	-0.005951	-0.006409	-0.29358	-0.012054	0.047302	0.019836	0.045624	-0.004883	0.006409	-0.005341	0.083923	0.086212	0.062103	0.026245	0.035095	0.15793	-0.033417	0.012665	0.016174	-0.015869	-0.028992	-0.029755	0.51315	-0.001678	-0.014648
34.101	0.005341	0.089874	0.057526	0.00946	-0.033112	0.14999	0.14313	0.002136	-0.00061	0.099487	0.002899	-0.05722	-0.094147	-0.083618	0.037994	0.015411	0.005798	0.074921	0.1207	0.097961	0.019989	0.035095	0.1831	-0.028992	0.009308	0.02655	-0.020447	-0.034943	-0.11185	0.3067	-0.005493	-0.019073
34.102	0.004425	0.095367	0.03418	0.001984	-0.062561	0.086212	0.11505	0.008392	0.039215	0.43167	0.009766	0.11261	-0.043182	-0.14175	0.000153	0.012512	0.019531	0.004272	-0.079498	-0.028381	0.007019	0.007935	0.12909	-0.032654	-0.003967	0.042419	0.023193	-0.088043	-0.34393	-0.033417	-0.003357	-0.017853
34.103	0.005341	0.14023	0.046234	0.005493	0.001831	0.005493	0.066071	0.003204	0.049438	0.099335	-0.007019	-0.003662	0.10941	-0.27191	0.023651	-0.017548	0.018311	0.038452	-0.17349	-0.271	0.014954	-0.055237	0.14282	-0.005951	0.019836	0.002594	0.066681	-0.336	-0.75913	-0.16754	-0.002441	-0.027161
34.104	0.006409	0.13107	0	0.013885	0.035553	-0.063934	0.006104	0.008087	0.071106	-0.039063	-0.003357	-0.1033	0.15686	-0.60913	0.024261	-0.001984	0.025482	0.061035	-0.099182	-0.33691	0.001221	-0.068054	0.13092	-0.056915	-0.012665	-0.051575	0.10651	0.24246	-0.64072	0.04364	-0.001068	-0.02121
34.105	-0.00061	0.097961	-0.029297	0.02121	-0.027313	-0.20844	-0.027466	0.006866	0.10574	-0.32181	0.006409	0.014191	0.078125	-0.57342	-0.003967	-0.014496	0.028992	0.031128	-0.047607	-0.12192	-0.041351	-0.057068	0.1384	-0.056305	-0.010529	-0.040131	0.077209	0.11322	-0.15991	-0.047607	-0.007324	-0.017395
34.106	-0.008392	0.043488	0.066681	0.009918	-0.001984	-0.1973	-0.032501	0.011139	0.1297	-0.060272	0.005188	0.04425	0.24796	-0.33173	-0.009613	-0.005188	0.019531	0.066223	-0.038605	0.21927	-0.03952	0.045471	0.13092	-0.014954	0.019684	-0.021973	-0.039368	-0.039673	0.61966	0.50369	-0.003204	-0.006409
34.107	0.00946	-0.014954	-0.001678	0.000153	0.046234	-0.13367	-0.11154	0.005341	0.112	0.057831	0.002747	0.010834	0.011139	-0.10132	-0.007782	0.003815	0.015106	0.070648	-0.077057	0.45227	-0.14587	0.16098	0.17639	-0.045013	0.00885	-0.023651	-0.051727	-0.009766	0.41977	0.20615	-0.002594	-0.006866
34.108	-0.003357	-0.033417	-0.042419	0.013275	0.090942	-0.015869	-0.047302	0.008392	0.037537	-0.16556	-0.000458	-0.014648	-0.066223	0.28748	-0.033875	0.001068	0.004883	0.029907	-0.090179	0.35095	-0.2272	0.22446	0.1358	-0.027008	0.0177	-0.014801	-0.03067	0.088348	-0.15457	0.14313	-0.001678	-0.009766
34.109	-0.008698	-0.039063	-0.084229	0.015106	0.085297	0.069733	0.024261	0.003662	-0.046997	-0.2092	-0.005646	0.036926	0.14557	0.25223	0.019531	-0.003662	-0.018921	0.10269	-0.011444	0.14816	-0.39185	0.17593	0.11276	0.010681	0.035553	-0.000305	-0.035248	0.099487	0.2272	0.27252	-0.001678	-0.007324
